<?xml version="1.0" standalone="no"?>
<!DOCTYPE svg PUBLIC "-//W3C//DTD SVG 20010904//EN"
 "http://www.w3.org/TR/2001/REC-SVG-20010904/DTD/svg10.dtd">
<svg version="1.0" xmlns="http://www.w3.org/2000/svg"
 width="2000.000000pt" height="2000.000000pt" viewBox="0 0 2000.000000 2000.000000"
 preserveAspectRatio="xMidYMid meet">
<metadata>
Created by potrace 1.14, written by Peter Selinger 2001-2017
</metadata>
<g transform="translate(0.000000,2000.000000) scale(0.100000,-0.100000)"
fill="#000000" stroke="none">
<path d="M17620 14630 c-41 -5 -105 -11 -141 -14 -37 -4 -77 -9 -89 -11 -13
-3 -46 -7 -74 -10 -62 -7 -104 -13 -176 -25 -30 -5 -77 -12 -105 -16 -27 -3
-59 -8 -70 -10 -10 -2 -35 -6 -55 -9 -20 -3 -47 -8 -60 -10 -14 -3 -151 -7
-305 -10 -327 -5 -501 -11 -865 -30 -256 -14 -380 -21 -490 -30 -30 -2 -100
-7 -155 -11 -197 -12 -346 -23 -400 -29 -22 -3 -76 -7 -120 -10 -44 -3 -105
-8 -135 -11 -30 -2 -75 -7 -100 -9 -25 -2 -79 -7 -120 -10 -41 -4 -91 -8 -110
-10 -57 -6 -170 -15 -240 -20 -36 -3 -85 -7 -110 -10 -25 -3 -72 -8 -105 -10
-33 -2 -82 -7 -110 -9 -27 -3 -77 -8 -110 -10 -95 -8 -176 -16 -225 -21 -25
-3 -81 -7 -125 -11 -44 -3 -96 -7 -115 -9 -19 -2 -71 -6 -115 -10 -44 -3 -96
-8 -115 -10 -19 -2 -71 -7 -115 -10 -44 -3 -98 -8 -120 -10 -22 -2 -83 -6
-135 -10 -52 -3 -113 -8 -135 -10 -140 -15 -274 -18 -720 -17 -588 1 -1180 8
-2370 28 -940 16 -2752 10 -3260 -11 -49 -2 -160 -6 -245 -10 -147 -6 -190 -8
-425 -20 -103 -5 -230 -13 -325 -20 -30 -2 -102 -7 -160 -10 -58 -3 -121 -8
-140 -10 -19 -2 -77 -7 -129 -10 -51 -3 -111 -8 -132 -10 -38 -4 -93 -9 -214
-20 -104 -10 -149 -14 -185 -19 -19 -2 -69 -7 -110 -10 -41 -4 -86 -9 -100
-11 -14 -2 -54 -7 -90 -10 -36 -4 -72 -8 -80 -10 -8 -2 -48 -7 -88 -10 -41 -4
-83 -8 -94 -10 -11 -3 -46 -7 -77 -10 -31 -4 -63 -8 -72 -11 -9 -3 -39 -7 -65
-10 -27 -2 -60 -6 -74 -9 -34 -5 -110 -16 -140 -20 -68 -9 -117 -17 -260 -40
-85 -13 -173 -27 -195 -30 -22 -4 -85 -15 -140 -25 -55 -11 -113 -22 -130 -24
-85 -14 -101 -17 -115 -21 -8 -2 -31 -7 -50 -10 -106 -17 -288 -60 -305 -71
-39 -24 -224 -69 -421 -100 -20 -3 -46 -7 -57 -10 -12 -2 -37 -6 -57 -9 -20
-3 -47 -7 -60 -10 -14 -2 -65 -12 -115 -21 -145 -26 -352 -82 -460 -124 -251
-99 -409 -241 -469 -422 -28 -85 -37 -194 -23 -298 17 -133 112 -463 185 -640
19 -47 42 -105 52 -130 27 -71 130 -323 140 -345 20 -41 90 -270 106 -343 9
-43 18 -115 21 -162 7 -115 18 -125 85 -78 14 10 32 18 40 18 8 0 28 -32 47
-74 30 -69 71 -123 116 -152 11 -7 55 -25 99 -39 82 -27 138 -58 169 -92 17
-19 16 -23 -8 -94 -49 -148 -68 -261 -69 -424 -1 -83 18 -257 38 -340 2 -11 9
-41 15 -67 16 -71 95 -336 118 -393 6 -16 -73 -46 -222 -86 -161 -42 -266 -93
-333 -160 -66 -68 -118 -172 -126 -254 -10 -106 -46 -159 -101 -148 -57 11
-142 6 -176 -11 -45 -21 -60 -52 -49 -100 17 -76 3 -158 -51 -302 -47 -125
-53 -147 -53 -219 0 -68 4 -88 28 -135 l27 -56 -19 -69 c-27 -98 -21 -212 18
-373 58 -233 62 -260 65 -382 2 -58 4 -116 4 -129 1 -14 17 -39 40 -61 21 -20
43 -46 49 -56 14 -26 1 -84 -35 -164 -37 -81 -56 -148 -51 -185 3 -33 60 -80
229 -192 342 -227 698 -371 1124 -453 112 -22 127 -24 225 -36 30 -4 64 -8 75
-10 11 -2 49 -6 85 -9 36 -3 85 -8 110 -10 123 -13 329 -17 910 -21 349 -1
676 -5 725 -8 103 -6 231 -15 290 -22 149 -16 195 -21 230 -28 11 -2 40 -7 65
-11 52 -8 49 -8 155 -30 104 -22 203 -48 321 -86 l96 -31 27 24 c77 71 95 86
126 102 58 32 67 20 60 -81 -7 -104 -1 -119 41 -102 63 26 66 24 166 -75 72
-71 102 -81 146 -50 34 24 49 62 55 142 5 68 20 108 36 97 4 -2 19 -6 33 -9
42 -7 66 27 64 94 -1 51 -3 56 -31 70 -58 29 -57 29 -28 70 35 48 53 59 80 49
30 -11 54 -71 93 -229 39 -164 64 -231 97 -270 23 -28 51 -38 65 -24 3 3 2 20
-2 37 -5 18 -11 57 -14 88 -5 66 11 99 49 99 18 0 35 16 70 64 59 83 70 92 91
75 24 -20 82 -163 89 -219 5 -40 19 -88 33 -112 l15 -27 45 39 c46 41 112 77
159 87 83 17 167 5 318 -45 198 -66 226 -73 306 -77 70 -4 160 15 189 40 63
53 162 63 275 25 39 -12 75 -26 80 -30 18 -12 132 -41 178 -44 46 -3 73 8 143
56 66 45 109 38 144 -23 l22 -40 426 5 c235 3 465 8 512 10 531 32 1262 37
1480 11 179 -21 286 -24 425 -11 111 10 240 19 422 31 531 34 1450 44 2688 28
905 -11 1906 -6 2250 12 39 2 140 6 225 10 85 3 178 8 205 10 28 2 97 7 155
11 58 4 121 8 140 9 19 2 80 6 135 9 55 4 111 9 125 11 14 2 59 7 100 11 41 3
86 7 100 9 14 1 61 6 105 10 44 3 87 8 95 10 8 2 38 7 65 10 47 6 201 37 345
71 36 8 74 16 85 18 11 2 81 18 155 36 74 18 142 33 150 35 8 2 51 12 95 24
44 11 91 22 105 24 14 3 54 13 90 22 36 9 72 18 80 20 8 2 51 12 95 24 44 11
91 22 105 25 14 3 81 19 150 36 69 17 148 35 175 41 68 15 86 28 138 101 83
116 166 303 221 500 28 97 82 356 91 433 3 28 7 61 10 75 2 14 6 54 10 90 3
36 9 84 12 108 13 111 22 399 29 927 3 253 7 489 9 525 7 154 17 337 20 365 2
16 6 73 10 125 3 52 8 106 10 120 2 14 7 68 10 120 3 52 8 111 10 130 4 33 8
96 20 315 4 83 11 347 21 860 3 165 7 336 9 380 1 44 6 181 10 305 12 346 8
713 -10 905 -1 17 -5 66 -9 110 -4 44 -9 100 -11 125 -3 25 -7 72 -10 105 -8
115 -16 181 -30 265 -8 47 -16 99 -18 115 -15 104 -77 359 -112 460 -57 168
-119 294 -188 384 -60 78 -249 268 -337 338 -258 207 -572 350 -867 397 -15 2
-48 8 -73 11 -25 4 -54 10 -65 12 -35 9 -546 11 -625 3z"/>
</g>
</svg>
